# xmcd
# 
# Track frame offsets:
#     150
#     8790
#     39995
#     75722
#     100685
#     131532
#     162727
#     180625
#     201932
#     229722
#     248822
#     276865
#     301690
# 
# Disc length: 4299
# 
# Revision: 3
# Processed by: cddbd v1.5.2PL0 Copyright (c) Steve Scherf et al.
# Submitted via: fre:ac v1.1beta1
# 
DISCID=a110c90d
DTITLE=矢野沙織 - 矢野沙織BEST  ～ジャズ回帰～
DYEAR=2007
DGENRE=J-Jazz
TTITLE0=Donna Lee
TTITLE1=砂とスカート
TTITLE2=Crazy He Calls Me
TTITLE3=Rizlla
TTITLE4=In A Sentimental Mood
TTITLE5=Manteca
TTITLE6=I and I
TTITLE7=Greenism
TTITLE8=My Ideal
TTITLE9=How To Make A Pearl
TTITLE10=Lover Man
TTITLE11=Tico Tico
TTITLE12=Open Mind
EXTD=YEAR: 2007
EXTT0=
EXTT1=
EXTT2=
EXTT3=
EXTT4=
EXTT5=
EXTT6=
EXTT7=
EXTT8=
EXTT9=
EXTT10=
EXTT11=
EXTT12=
PLAYORDER=
